<svg   id="chart"   width="1200"   height="675"   viewBox="0 0 1200 675"   xmlns="http://www.w3.org/2000/svg" >      <path d="M 0,672.2311962901773 C 4.4,670.3115343566252 13.200000000000001,667.1673235109487 22,662.6328866224167 C 30.799999999999997,658.0984497338846 35.2,654.3527030307272 44,649.5590118475172 C 52.800000000000004,644.7653206643073 57.2,643.9052749784328 66,638.6644307063669 C 74.8,633.4235864343011 79.2,628.7030652383534 88,623.3547904871879 C 96.8,618.0065157360224 101.2,612.8212514836251 110,611.9230569505396 C 118.8,611.0248624174541 123.2,615.6120893599017 132,618.8638178217604 C 140.8,622.1155462836192 145.2,637.3773903548451 154,628.1816992598335 C 162.8,618.9860081648219 167.2,575.4798464072283 176,572.8853623467021 C 184.8,570.2908782861759 189.2,611.3765596259716 198,615.2092789572025 C 206.8,619.0419982884334 211.2,600.2779513455714 220,592.0489590028569 C 228.8,583.8199666601424 233.2,575.4266261444056 242,574.06431724363 C 250.8,572.7020083428542 255.2,591.3620732145298 264,585.2374144989786 C 272.8,579.1127557834275 277.2,556.308777773607 286,543.4410236658741 C 294.8,530.5732695581413 299.2,516.7951859026052 308,520.8986439603144 C 316.8,525.0021020180236 321.2,574.157602687647 330,563.95831395442 C 338.8,553.7590252211929 343.2,474.6135003499111 352,469.902200294179 C 360.8,465.19090023844694 365.2,530.3241888210048 374,540.4018136757595 C 382.8,550.4794385305142 387.2,525.7839875807463 396,520.2903245679528 C 404.8,514.7966615551593 409.2,508.48524598243324 418,512.9334986117923 C 426.8,517.3817512411513 431.2,546.722226707354 440,542.531587714748 C 448.8,538.3409487221419 453.2,515.9850597130744 462,491.9803036487617 C 470.8,467.975547584449 475.2,418.4665771139833 484,422.50780739318435 C 492.8,426.5490376723854 497.2,515.1370639242087 506,512.186455044767 C 514.8,509.23584616532514 519.2,413.52972254212136 528,407.75476299597545 C 536.8,401.97980344982955 541.2,495.3210244631123 550,483.3116573140373 C 558.8,471.3022901649623 563.2,364.4160328205873 572,347.7079272506006 C 580.8,330.99982168061393 585.2,404.09618844279504 594,399.7711294641038 C 602.8,395.4460704854126 607.2,346.1150001883827 616,326.08263235714446 C 624.8,306.05026452590624 629.2,286.3696463709878 638,299.60929030791283 C 646.8,312.84893424483784 651.2,369.42590273016003 660,392.2808520417695 C 668.8,415.13580135337895 673.2,409.5291267925929 682,413.88403686596 C 690.8,418.23894693932715 695.2,442.5834785417777 704,414.0554024086051 C 712.8,385.52732627543253 717.2,306.46394627425 726,271.2436562000971 C 734.8,236.02336612594422 739.2,213.6211766587878 748,237.9539520378406 C 756.8,262.2867274168934 761.2,364.3591479268935 770,392.90753309536115 C 778.8,421.4559182638288 783.2,405.2550031621716 792,380.6958778801789 C 800.8,356.1367525981862 805.2,269.710200439835 814,270.1119066853976 C 822.8,270.5136129309603 827.2,377.1249545688088 836,382.7044091079922 C 844.8,388.2838636471756 849.2,299.2870945255213 858,298.00917938131465 C 866.8,296.731264237108 871.2,394.19637495450286 880,376.3148333869589 C 888.8,358.433291819415 893.2,256.4769685869926 902,208.60147154359504 C 910.8,160.72597450019748 915.2,102.74170714334143 924,136.93734816997107 C 932.8,171.1329891966007 937.2,366.72736214191366 946,379.57967667674325 C 954.8,392.43199121157284 959.2,244.78419282206323 968,201.198920844119 C 976.8,157.61364886617474 981.2,177.93934591395816 990,161.65331678702205 C 998.8,145.36728766008594 1003.2,99.13276619693606 1012,119.76877520943846 C 1020.8,140.40478422194087 1025.2,260.8604653326738 1034,264.83336184953407 C 1042.8,268.80625836639433 1047.2,169.61634195403136 1056,139.63325779373986 C 1064.8,109.65017363344836 1069.2,79.3888652196269 1078,114.91794104807661 C 1086.8,150.44701687652633 1091.2,275.66183232339256 1100,317.27863693598846 C 1108.8,358.89544154858436 1113.2,376.40288949997955 1122,323.001964111056 C 1130.8,269.60103872213244 1135.2,104.45287859781358 1144,50.27400999137058 C 1152.8,-3.9048586150724134 1157.2,16.860091839358674 1166,52.10762107884102 C 1174.8,87.35515031832338 1183.6,191.63084916679404 1188,226.5116561887823,L 1200 675,L 0 675Z" fill="#ff55601a" />   <path d="M 0,672.2311962901773 C 4.4,670.3115343566252 13.200000000000001,667.1673235109487 22,662.6328866224167 C 30.799999999999997,658.0984497338846 35.2,654.3527030307272 44,649.5590118475172 C 52.800000000000004,644.7653206643073 57.2,643.9052749784328 66,638.6644307063669 C 74.8,633.4235864343011 79.2,628.7030652383534 88,623.3547904871879 C 96.8,618.0065157360224 101.2,612.8212514836251 110,611.9230569505396 C 118.8,611.0248624174541 123.2,615.6120893599017 132,618.8638178217604 C 140.8,622.1155462836192 145.2,637.3773903548451 154,628.1816992598335 C 162.8,618.9860081648219 167.2,575.4798464072283 176,572.8853623467021 C 184.8,570.2908782861759 189.2,611.3765596259716 198,615.2092789572025 C 206.8,619.0419982884334 211.2,600.2779513455714 220,592.0489590028569 C 228.8,583.8199666601424 233.2,575.4266261444056 242,574.06431724363 C 250.8,572.7020083428542 255.2,591.3620732145298 264,585.2374144989786 C 272.8,579.1127557834275 277.2,556.308777773607 286,543.4410236658741 C 294.8,530.5732695581413 299.2,516.7951859026052 308,520.8986439603144 C 316.8,525.0021020180236 321.2,574.157602687647 330,563.95831395442 C 338.8,553.7590252211929 343.2,474.6135003499111 352,469.902200294179 C 360.8,465.19090023844694 365.2,530.3241888210048 374,540.4018136757595 C 382.8,550.4794385305142 387.2,525.7839875807463 396,520.2903245679528 C 404.8,514.7966615551593 409.2,508.48524598243324 418,512.9334986117923 C 426.8,517.3817512411513 431.2,546.722226707354 440,542.531587714748 C 448.8,538.3409487221419 453.2,515.9850597130744 462,491.9803036487617 C 470.8,467.975547584449 475.2,418.4665771139833 484,422.50780739318435 C 492.8,426.5490376723854 497.2,515.1370639242087 506,512.186455044767 C 514.8,509.23584616532514 519.2,413.52972254212136 528,407.75476299597545 C 536.8,401.97980344982955 541.2,495.3210244631123 550,483.3116573140373 C 558.8,471.3022901649623 563.2,364.4160328205873 572,347.7079272506006 C 580.8,330.99982168061393 585.2,404.09618844279504 594,399.7711294641038 C 602.8,395.4460704854126 607.2,346.1150001883827 616,326.08263235714446 C 624.8,306.05026452590624 629.2,286.3696463709878 638,299.60929030791283 C 646.8,312.84893424483784 651.2,369.42590273016003 660,392.2808520417695 C 668.8,415.13580135337895 673.2,409.5291267925929 682,413.88403686596 C 690.8,418.23894693932715 695.2,442.5834785417777 704,414.0554024086051 C 712.8,385.52732627543253 717.2,306.46394627425 726,271.2436562000971 C 734.8,236.02336612594422 739.2,213.6211766587878 748,237.9539520378406 C 756.8,262.2867274168934 761.2,364.3591479268935 770,392.90753309536115 C 778.8,421.4559182638288 783.2,405.2550031621716 792,380.6958778801789 C 800.8,356.1367525981862 805.2,269.710200439835 814,270.1119066853976 C 822.8,270.5136129309603 827.2,377.1249545688088 836,382.7044091079922 C 844.8,388.2838636471756 849.2,299.2870945255213 858,298.00917938131465 C 866.8,296.731264237108 871.2,394.19637495450286 880,376.3148333869589 C 888.8,358.433291819415 893.2,256.4769685869926 902,208.60147154359504 C 910.8,160.72597450019748 915.2,102.74170714334143 924,136.93734816997107 C 932.8,171.1329891966007 937.2,366.72736214191366 946,379.57967667674325 C 954.8,392.43199121157284 959.2,244.78419282206323 968,201.198920844119 C 976.8,157.61364886617474 981.2,177.93934591395816 990,161.65331678702205 C 998.8,145.36728766008594 1003.2,99.13276619693606 1012,119.76877520943846 C 1020.8,140.40478422194087 1025.2,260.8604653326738 1034,264.83336184953407 C 1042.8,268.80625836639433 1047.2,169.61634195403136 1056,139.63325779373986 C 1064.8,109.65017363344836 1069.2,79.3888652196269 1078,114.91794104807661 C 1086.8,150.44701687652633 1091.2,275.66183232339256 1100,317.27863693598846 C 1108.8,358.89544154858436 1113.2,376.40288949997955 1122,323.001964111056 C 1130.8,269.60103872213244 1135.2,104.45287859781358 1144,50.27400999137058 C 1152.8,-3.9048586150724134 1157.2,16.860091839358674 1166,52.10762107884102 C 1174.8,87.35515031832338 1183.6,191.63084916679404 1188,226.5116561887823" fill="none" stroke="#ff5560" stroke-width="2px" />   <g>   		<circle cx="0" cy="672.2311962901773" r="6" fill="#ff5560" />,		<circle cx="22" cy="662.6328866224167" r="6" fill="#ff5560" />,		<circle cx="44" cy="649.5590118475172" r="6" fill="#ff5560" />,		<circle cx="66" cy="638.6644307063669" r="6" fill="#ff5560" />,		<circle cx="88" cy="623.3547904871879" r="6" fill="#ff5560" />,		<circle cx="110" cy="611.9230569505396" r="6" fill="#ff5560" />,		<circle cx="132" cy="618.8638178217604" r="6" fill="#ff5560" />,		<circle cx="154" cy="628.1816992598335" r="6" fill="#ff5560" />,		<circle cx="176" cy="572.8853623467021" r="6" fill="#ff5560" />,		<circle cx="198" cy="615.2092789572025" r="6" fill="#ff5560" />,		<circle cx="220" cy="592.0489590028569" r="6" fill="#ff5560" />,		<circle cx="242" cy="574.06431724363" r="6" fill="#ff5560" />,		<circle cx="264" cy="585.2374144989786" r="6" fill="#ff5560" />,		<circle cx="286" cy="543.4410236658741" r="6" fill="#ff5560" />,		<circle cx="308" cy="520.8986439603144" r="6" fill="#ff5560" />,		<circle cx="330" cy="563.95831395442" r="6" fill="#ff5560" />,		<circle cx="352" cy="469.902200294179" r="6" fill="#ff5560" />,		<circle cx="374" cy="540.4018136757595" r="6" fill="#ff5560" />,		<circle cx="396" cy="520.2903245679528" r="6" fill="#ff5560" />,		<circle cx="418" cy="512.9334986117923" r="6" fill="#ff5560" />,		<circle cx="440" cy="542.531587714748" r="6" fill="#ff5560" />,		<circle cx="462" cy="491.9803036487617" r="6" fill="#ff5560" />,		<circle cx="484" cy="422.50780739318435" r="6" fill="#ff5560" />,		<circle cx="506" cy="512.186455044767" r="6" fill="#ff5560" />,		<circle cx="528" cy="407.75476299597545" r="6" fill="#ff5560" />,		<circle cx="550" cy="483.3116573140373" r="6" fill="#ff5560" />,		<circle cx="572" cy="347.7079272506006" r="6" fill="#ff5560" />,		<circle cx="594" cy="399.7711294641038" r="6" fill="#ff5560" />,		<circle cx="616" cy="326.08263235714446" r="6" fill="#ff5560" />,		<circle cx="638" cy="299.60929030791283" r="6" fill="#ff5560" />,		<circle cx="660" cy="392.2808520417695" r="6" fill="#ff5560" />,		<circle cx="682" cy="413.88403686596" r="6" fill="#ff5560" />,		<circle cx="704" cy="414.0554024086051" r="6" fill="#ff5560" />,		<circle cx="726" cy="271.2436562000971" r="6" fill="#ff5560" />,		<circle cx="748" cy="237.9539520378406" r="6" fill="#ff5560" />,		<circle cx="770" cy="392.90753309536115" r="6" fill="#ff5560" />,		<circle cx="792" cy="380.6958778801789" r="6" fill="#ff5560" />,		<circle cx="814" cy="270.1119066853976" r="6" fill="#ff5560" />,		<circle cx="836" cy="382.7044091079922" r="6" fill="#ff5560" />,		<circle cx="858" cy="298.00917938131465" r="6" fill="#ff5560" />,		<circle cx="880" cy="376.3148333869589" r="6" fill="#ff5560" />,		<circle cx="902" cy="208.60147154359504" r="6" fill="#ff5560" />,		<circle cx="924" cy="136.93734816997107" r="6" fill="#ff5560" />,		<circle cx="946" cy="379.57967667674325" r="6" fill="#ff5560" />,		<circle cx="968" cy="201.198920844119" r="6" fill="#ff5560" />,		<circle cx="990" cy="161.65331678702205" r="6" fill="#ff5560" />,		<circle cx="1012" cy="119.76877520943846" r="6" fill="#ff5560" />,		<circle cx="1034" cy="264.83336184953407" r="6" fill="#ff5560" />,		<circle cx="1056" cy="139.63325779373986" r="6" fill="#ff5560" />,		<circle cx="1078" cy="114.91794104807661" r="6" fill="#ff5560" />,		<circle cx="1100" cy="317.27863693598846" r="6" fill="#ff5560" />,		<circle cx="1122" cy="323.001964111056" r="6" fill="#ff5560" />,		<circle cx="1144" cy="50.27400999137058" r="6" fill="#ff5560" />,		<circle cx="1166" cy="52.10762107884102" r="6" fill="#ff5560" />,		<circle cx="1188" cy="226.5116561887823" r="6" fill="#ff5560" />   </g> </svg>